<?xml version="1.0" encoding="UTF-8" standalone="no"?>
<svg
   width="64"
   height="64"
   viewBox="0 0 64 64"
   fill="none"
   version="1.1"
   id="svg1"
   sodipodi:docname="Search.svg"
   xml:space="preserve"
   inkscape:version="1.3.2 (091e20e, 2023-11-25, custom)"
   xmlns:inkscape="http://www.inkscape.org/namespaces/inkscape"
   xmlns:sodipodi="http://sodipodi.sourceforge.net/DTD/sodipodi-0.dtd"
   xmlns="http://www.w3.org/2000/svg"
   xmlns:svg="http://www.w3.org/2000/svg"><defs
     id="defs1" /><sodipodi:namedview
     id="namedview1"
     pagecolor="#ffffff"
     bordercolor="#000000"
     borderopacity="0.25"
     inkscape:showpageshadow="2"
     inkscape:pageopacity="0.0"
     inkscape:pagecheckerboard="0"
     inkscape:deskcolor="#d1d1d1"
     inkscape:zoom="6.3515625"
     inkscape:cx="69.589176"
     inkscape:cy="53.923739"
     inkscape:window-width="1920"
     inkscape:window-height="1009"
     inkscape:window-x="-8"
     inkscape:window-y="-8"
     inkscape:window-maximized="1"
     inkscape:current-layer="svg1" /><path
     d="m 38.619141,5 c -11.256,-1.243e-4 -20.380984,9.12486 -20.38086,20.380859 0.0052,4.360164 1.408531,8.603841 4.003906,12.107422 l -2.328125,2.328125 c -1.179054,-1.179053 -3.090476,-1.179053 -4.269531,0 l -8.8769529,8.875 c -2.3565981,2.358108 -2.3565981,6.182465 0,8.539063 2.3581079,2.359617 6.1829089,2.359617 8.5410159,0 l 8.875,-8.875 c 1.179054,-1.179054 1.179054,-3.090478 0,-4.269532 l 2.328125,-2.328125 c 3.503581,2.595376 7.747258,3.998754 12.107422,4.003907 C 49.87514,45.761843 59.000124,36.636859 59,25.380859 59.000124,14.12486 49.87514,4.9998757 38.619141,5 Z m 0,6.039063 c 7.920662,7.2e-5 14.341724,6.421134 14.341796,14.341796 -7.2e-5,7.920663 -6.421134,14.341725 -14.341796,14.341797 -7.920663,-7.2e-5 -14.341725,-6.421134 -14.341797,-14.341797 7.2e-5,-7.920662 6.421134,-14.341724 14.341797,-14.341796 z"
     style="fill:#000000"
     id="path1" /></svg>
